# xmcd
#
# Track frame offsets: 
#        150
#        17482
#        33817
#        49112
#        66927
#
# Disc length: 1121 seconds
#
# Revision: 0
# Processed by: cddbd v1.5.2PL0 Copyright (c) Steve Scherf et al.
# Submitted via: ExactAudioCopyFreeDBPlugin 1.0
#
DISCID=35045f05
DTITLE=Walkin' Johnny - A Little Messed Up
DYEAR=2015
DGENRE=Red Dirt
TTITLE0=Little Miss Misery
TTITLE1=Blood or Wine
TTITLE2=California Outlaw
TTITLE3=You're My Everything
TTITLE4=One Night Dance
EXTD=
EXTT0=
EXTT1=
EXTT2=
EXTT3=
EXTT4=
PLAYORDER=
